PathFileType	4	(X/Y/Z)	C:/Users/beibeiliu/ov580/test_trc/User2\sequence.1_training_dense_left.trc
DataRate	CameraRate	NumFrames	NumMarkers	Units	OrigDataRate	OrigDataStartFrame	OrigNumFrames
120	120	16	19	mm	120	127	338
Frame#	Time	ThumbCMC			ThumbMCP			ThumbIP			ThumbTip			IndexMCP			IndexPIP			IndexTip			MiddleMCP			MiddlePIP			MiddleTip			RingMCP			RingPIP			RingTip			PinkyMCP			PinkyPIP			PinkyTip			BackHand1			BackHand2			BackHand3	
		X0	Y0	Z0	X1	Y1	Z1	X2	Y2	Z2	X3	Y3	Z3	X4	Y4	Z4	X5	Y5	Z5	X6	Y6	Z6	X7	Y7	Z7	X8	Y8	Z8	X9	Y9	Z9	X10	Y10	Z10	X11	Y11	Z11	X12	Y12	Z12	X13	Y13	Z13	X14	Y14	Z14	X15	Y15	Z15	X16	Y16	Z16	X17	Y17	Z17	X18	Y18	Z18	
126	1.05	-128.941	61.2999	119.634	-108.19	59.1653	103.251	-82.7039	54.2628	74.0002	-66.3554	47.5824	60.3027	-140.387	24.4158	41.8377	-132.387	14.2536	20.4998	-126.784	-3.26652	-5.51856	-168.526	7.3422	46.8144	-162.888	-7.04378	19.2047	-160.192	-26.0281	-7.08961	-188.576	-8.91943	57.0605	-188.72	-21.9817	36.6651	-189.089	-36.9889	13.2607	-199.279	-16.7346	89.0927	-203.674	-28.6976	67.4557	-213.573	-44.8337	46.8343	-190.905	23.6148	102.491	-194.615	43.3391	134.006	-169.21	53.0927	105.636	
127	1.05833	-124.585	57.4292	119.677	-99.441	54.5991	102.239	-81.2066	44.2493	76.0008	-61.587	37.9287	55.6988	-142.975	24.4697	41.3116	-134.774	15.8207	19.0263	-131.221	0.219596	-8.82513	-167.824	12.5236	39.5842	-168.62	-4.18427	13.8955	-169.882	-22.3546	-13.0561	-190.967	-0.380302	55.2434	-196.031	-14.2671	35.2377	-196.22	-28.4203	5.52998	-204.379	-9.66109	85.3024	-214.572	-22.2572	65.4393	-221.89	-33.1661	41.4326	-188.658	31.0845	105.768	-192.458	47.4976	128.705	-165.296	54.0474	105.186	
128	1.06667	-120.832	51.9147	120.232	-96.8726	46.6201	101.534	-78.0837	36.0416	73.8987	-61.4508	27.7277	58.7215	-143.992	26.7142	42.983	-137.631	16.6047	15.5728	-131.573	6.28019	-6.69064	-171.949	15.5298	38.4747	-172.495	3.57057	11.0022	-177.632	-14.5191	-14.5636	-195.275	5.96228	52.4145	-200.249	-4.16638	33.1721	-203.707	-19.1085	3.00788	-204.566	-1.4316	82.8622	-219.68	-12.8274	60.695	-227.711	-20.9979	35.1164	-188.405	32.6275	103.269	-189.683	51.3799	132.056	-158.474	57.7686	108.215	
129	1.075	-116.62	46.6187	119.583	-95.3493	38.3625	100.275	-76.6463	28.0986	70.3747	-64.0059	18.7395	58.0116	-140.189	29.6758	43.1199	-136.982	19.4338	12.3177	-134.781	10.5847	-9.41367	-174.568	21.8141	40.4402	-175.102	10.3942	8.80639	-181.799	-2.68449	-18.3535	-196.585	13.0985	51.9199	-204.262	4.69072	29.5094	-208.867	-7.04693	1.82899	-209.958	5.583	80.79	-220.789	-1.8492	57.0456	-232.622	-5.91676	33.3529	-186.757	37.6971	103.487	-183.592	54.2128	131.415	-152.552	56.0374	106.478	
130	1.08333	-115.283	40.849	117.166	-92.9766	33.3528	96.2803	-75.6099	21.0452	70.0893	-61.3104	12.2532	54.0774	-139.27	31.436	42.0163	-139.662	23.7708	12.4128	-139.649	14.5601	-14.8939	-170.847	28.3371	37.4798	-176.244	19.2605	8.77722	-182.283	8.81416	-19.6651	-196.915	21.8885	54.3074	-202.025	14.6709	23.4227	-210.424	5.98491	-3.85418	-209.882	12.57	75.1133	-221.252	7.48542	54.3553	-235.399	5.94927	32.5001	-187.663	40.5409	99.9239	-181.46	52.3112	132.112	-150.018	55.9318	109.726	
131	1.09167	-115.437	35.3291	118.767	-94.1777	26.6126	96.9311	-75.5866	16.3168	71.5507	-64.2023	4.7805	52.0553	-140.735	33.6834	38.1759	-139.434	29.2465	13.8905	-143.384	21.9307	-13.7757	-171.889	34.8894	35.1532	-176.691	27.7647	6.2177	-186.233	20.0066	-24.2084	-196.854	27.9419	50.4986	-206.513	24.5143	23.9882	-214.075	18.2894	-1.7144	-208.459	19.3994	73.63	-224.843	16.2012	52.7413	-239.708	19.9331	30.3387	-186.795	42.5129	103.52	-177.587	55.0747	131.894	-148.983	54.3204	110.9	
132	1.1	-114.534	32.0545	116.196	-91.3292	22.4841	94.8551	-76.5586	12.8849	67.16	-65.1633	1.95852	51.8083	-142.955	36.7745	38.911	-143.103	34.4064	10.9573	-142.624	30.4707	-15.0697	-171.681	39.968	34.2607	-179.079	35.6585	5.15377	-186.958	31.6992	-26.7328	-193.438	35.3882	47.412	-206.214	33.0585	22.075	-210.675	31.3328	-4.21314	-209.27	25.3216	72.4206	-225.083	25.5074	49.0308	-238.816	29.5074	28.5006	-183.182	43.1742	100.749	-174.777	54.2296	136.346	-145.916	53.701	105.735	
133	1.10833	-111.237	28.7262	114.71	-92.2405	19.1836	97.0572	-79.186	8.43304	67.4115	-64.9024	-1.00412	45.9539	-140.46	40.4513	40.4617	-142.461	38.887	11.7623	-142.382	38.0283	-17.4598	-171.364	44.9305	36.7776	-174.028	43.2533	5.80919	-186.373	42.9985	-22.8603	-197.448	41.0593	53.0323	-202.493	41.0264	24.7855	-210.574	41.5872	-6.03101	-213.111	30.3142	74.1828	-226.599	33.0587	52.5388	-234.57	38.6422	30.9363	-181.81	47.5156	105.846	-174.752	53.5126	136.377	-146.332	52.8563	110.682	
134	1.11667	-113.457	24.3753	117.279	-96.9045	15.8271	91.2	-82.1197	6.98916	63.4144	-69.2054	-2.77369	45.244	-141.336	44.3964	41.0493	-136.946	45.0706	9.35275	-143.815	45.7557	-14.7173	-167.802	50.4384	37.5764	-175.033	51.7663	9.7081	-180.859	52.9399	-24.7601	-196.1	47.0624	52.6913	-201.837	49.8027	24.5718	-212.526	52.1667	-4.86334	-213.895	37.8518	71.9216	-223.026	41.9472	48.6349	-232.296	49.6475	29.0853	-182.853	46.373	102.196	-172.752	53.6635	132.837	-143.583	52.6781	108.993	
135	1.125	-113.505	22.388	119.396	-95.9551	13.8638	94.692	-82.5791	6.54111	61.8163	-67.8467	-1.85608	44.2089	-141.24	48.0776	38.6007	-142.246	51.407	11.0925	-145.126	54.7937	-15.1467	-167.979	54.672	40.1779	-172.115	57.9801	11.2709	-185.148	64.0733	-22.9297	-191.502	51.5358	50.6968	-204.265	57.5367	25.362	-208.854	61.2075	-2.23893	-209.735	38.0128	75.5664	-224.277	47.8813	50.924	-233.13	57.8861	33.6059	-180.253	47.9934	105.536	-177.507	50.2738	135.453	-143.451	50.3931	111.849	
136	1.13333	-117.381	21.4252	114.492	-96.779	14.8003	90.4051	-81.374	8.08463	64.1696	-69.4186	1.72922	41.4777	-139.807	52.4428	40.4218	-141.36	58.2319	14.8526	-143.878	62.8105	-10.648	-166.961	60.3489	41.7303	-171.345	66.3723	11.3076	-178.664	73.1677	-20.3938	-193.18	55.4458	55.6918	-200.606	62.4388	31.635	-210.07	70.014	0.496487	-211.815	45.2645	73.3797	-225.323	52.6695	55.271	-233.31	66.9232	33.4962	-178.448	47.762	108.729	-175.964	49.9384	138.388	-145.21	50.2322	113.373	
137	1.14167	-117.715	21.284	114.553	-97.2625	14.3972	92.2287	-86.3871	10.6462	58.7717	-74.8664	4.65145	36.9919	-139.974	55.3041	46.5917	-136.718	62.7864	16.2246	-138.961	69.2912	-10.3142	-166.767	62.552	47.331	-171.626	73.5775	13.8779	-182.674	82.4928	-14.2779	-194.873	59.4051	59.8522	-204.228	68.2163	34.6984	-208.783	77.347	3.26581	-210.86	47.4538	76.1476	-225.287	58.0115	56.1115	-231.621	70.6482	41.271	-179.157	49.9763	110.014	-173.924	47.0471	140.89	-141.764	50.5231	114.002	
138	1.15	-117.191	18.8329	115.829	-100.546	14.5639	89.8533	-85.7027	13.8299	53.8063	-76.6766	7.85409	33.9645	-141.732	59.4252	45.2723	-143.224	68.913	17.1308	-143.335	76.4094	-10.5044	-171.027	69.3895	46.7437	-175.383	78.9313	16.2421	-184.058	89.1772	-10.2898	-193.917	62.8335	62.4487	-203.032	73.1297	36.4807	-214.515	81.9952	11.496	-210.111	51.0636	76.8804	-226.878	62.757	59.8906	-233.279	75.1393	45.7464	-182.298	53.126	108.861	-171.217	46.2235	143.744	-141.511	50.0552	112.851	
139	1.15833	-115.083	20.8908	110.936	-101.017	18.6162	84.2757	-92.2948	18.1577	51.6552	-84.7721	14.0958	31.8003	-143.114	62.4034	45.1665	-145.096	72.6703	17.3276	-151.411	80.6683	-4.84012	-176.369	73.5264	48.2463	-180.253	82.0478	23.4487	-187.902	93.4879	-5.39944	-198.326	65.7794	62.5768	-209.831	77.8206	38.3386	-216.347	87.4588	12.3382	-212.726	49.4985	84.7204	-228.757	62.5191	66.3754	-241.262	78.5522	48.7739	-180.035	50.4504	114.203	-173.188	48.6826	140.947	-144.506	49.4579	116.984	
140	1.16667	-118.79	23.3736	109.503	-103.972	20.5807	83.5392	-95.4085	22.0022	49.4796	-86.9142	19.8948	24.9649	-152.035	65.6045	46.036	-154.385	77.5603	18.8163	-160.034	86.5951	-3.62645	-177.904	72.4888	52.4702	-188.257	85.5706	25.3218	-197.177	98.7254	-4.33318	-200.452	67.711	65.6541	-212.905	80.3604	40.429	-221.805	89.9151	16.2684	-217.11	51.9787	86.2225	-232.605	64.2189	69.8698	-241.266	78.2783	54.0973	-182.319	51.234	114.486	-170.724	45.9369	146.092	-143.062	53.3111	113.729	
141	1.175	-119.118	24.531	108.687	-110.515	23.4015	80.7935	-98.1227	25.4855	48.079	-94.8702	22.2024	26.9235	-154.62	65.512	48.0834	-159.412	76.7062	23.439	-164.544	89.4146	-4.6784	-185.445	74.224	55.5358	-193.001	88.3765	23.5478	-204.139	100.487	0.888168	-209.713	69.3697	68.1504	-221.258	78.8516	47.6935	-232.399	89.1314	24.811	-223.412	54.5896	89.4879	-236.573	63.3077	76.0283	-249.691	82.446	59.5112	-186.811	52.8396	112.703	-175.087	49.2196	143.958	-148.961	51.7732	115.694	
